Patient4_TMGait_0pt4_03_right_20_GRF.mot
version=1
nRows=26
nColumns=19
inDegrees=no
endheader
time	F1x	F1y	F1z	M1x	M1y	M1z	F2x	F2y	F2z	M2x	M2y	M2z	EC1x	EC1y	EC1z	EC2x	EC2y	EC2z
25.51	11.0846	704.5866	42.5102	-252.6193	-40.1841	747.1481	-2.9761	-2.9262	8.7455	-2.3981	-4.076	-5.7897	-0.0592	0.0182	-0.0073	-0.0462	0.0165	0.9585
25.5228	9.4492	708.9649	42.5957	-253.5968	-40.4863	751.0029	-1.9651	-1.0964	5.8393	-1.3137	-2.6825	-2.9176	-0.0592	0.0182	-0.0073	-0.0462	0.0165	0.9585
25.5356	7.9424	715.6253	42.8489	-255.2651	-40.9505	756.9916	-1.1736	0.41868	3.3782	-0.39222	-1.4891	-0.50279	-0.0592	0.0182	-0.0073	-0.0462	0.0165	0.9585
25.5484	6.6537	724.5303	43.2821	-257.625	-41.5765	765.109	-0.63075	1.5596	1.5004	0.31643	-0.56161	1.3443	-0.0592	0.0182	-0.0073	-0.0462	0.0165	0.9585
25.5611	5.6449	735.2629	43.8721	-260.5478	-42.3209	774.9598	-0.29647	2.3443	0.19421	0.81409	0.098993	2.6285	-0.0592	0.0182	-0.0073	-0.0462	0.0165	0.9585
25.5739	4.9753	747.1083	44.592	-263.8004	-43.1294	785.8078	-0.13502	2.8414	-0.62602	1.1322	0.5315	3.4522	-0.0592	0.0182	-0.0073	-0.0462	0.0165	0.9585
25.5867	4.7168	759.1717	45.4143	-267.0897	-43.9433	796.6986	-0.10803	3.0893	-1.0715	1.3021	0.78681	3.883	-0.0592	0.0182	-0.0073	-0.0462	0.0165	0.9585
25.5995	4.9437	770.5157	46.3128	-270.1126	-44.7046	806.6266	-0.18018	3.1398	-1.2597	1.3566	0.92372	4.0084	-0.0592	0.0182	-0.0073	-0.0462	0.0165	0.9585
25.6123	5.6835	780.3024	47.2672	-272.5991	-45.3764	814.7105	-0.31159	3.0164	-1.2942	1.3162	0.99881	3.8806	-0.0592	0.0182	-0.0073	-0.0462	0.0165	0.9585
25.6251	6.9278	787.8742	48.2667	-274.3345	-45.9383	820.2841	-0.48998	2.6904	-1.2534	1.1828	1.0599	3.4842	-0.0592	0.0182	-0.0073	-0.0462	0.0165	0.9585
25.6379	8.632	792.8143	49.283	-275.1836	-46.3632	822.9632	-0.69758	2.1394	-1.195	0.95372	1.138	2.8033	-0.0592	0.0182	-0.0073	-0.0462	0.0165	0.9585
25.6506	10.7068	794.9812	50.2635	-275.0976	-46.6173	822.6641	-0.89359	1.3192	-1.1534	0.61659	1.2392	1.7908	-0.0592	0.0182	-0.0073	-0.0462	0.0165	0.9585
25.6634	13.0396	794.4548	51.1479	-274.0986	-46.6687	819.5379	-1.0606	0.18442	-1.1368	0.15768	1.3484	0.40832	-0.0592	0.0182	-0.0073	-0.0462	0.0165	0.9585
25.6762	15.5118	791.4623	51.8982	-272.2568	-46.5109	813.899	-1.1282	-1.2576	-1.1373	-0.41865	1.4198	-1.3302	-0.0592	0.0182	-0.0073	-0.0462	0.0165	0.9585
25.689	18.0063	786.3709	52.5166	-269.6868	-46.1796	806.2099	-1.0201	-2.8998	-1.1228	-1.0731	1.3822	-3.2905	-0.0592	0.0182	-0.0073	-0.0462	0.0165	0.9585
25.7018	20.4154	779.68	53.0576	-266.5433	-45.7638	797.0524	-0.62873	-4.5325	-1.0366	-1.722	1.1311	-5.2284	-0.0592	0.0182	-0.0073	-0.0462	0.0165	0.9585
25.7146	22.6726	771.9852	53.6043	-263.0156	-45.3726	787.0798	0.18176	-5.7311	-0.80583	-2.1994	0.53374	-6.6391	-0.0592	0.0182	-0.0073	-0.0462	0.0165	0.9585
25.7274	24.765	763.9324	54.2539	-259.3148	-45.1143	776.9697	1.5617	-5.8268	-0.34403	-2.2406	-0.5584	-6.7313	-0.0592	0.0182	-0.0073	-0.0462	0.0165	0.9585
25.7401	26.7061	756.1351	55.0765	-255.6481	-45.0619	767.3529	3.6293	-3.8761	0.44191	-1.4694	-2.286	-4.3877	-0.0592	0.0182	-0.0073	-0.0462	0.0165	0.9585
25.7529	28.5252	748.9728	56.1021	-252.1518	-45.2428	758.605	6.4392	1.3809	1.6251	0.61095	-4.7401	1.8735	-0.0592	0.0182	-0.0073	-0.0462	0.0165	0.9585
25.7657	30.2396	742.4384	57.288	-248.8362	-45.6173	750.7019	9.8997	11.3986	3.2333	4.5779	-7.901	13.7524	-0.0592	0.0182	-0.0073	-0.0462	0.0165	0.9585
25.7785	31.8559	736.0281	58.5215	-245.5473	-46.0857	743.1183	13.6329	27.6323	5.21	11.0111	-11.5406	32.9551	-0.0592	0.0182	-0.0073	-0.0462	0.0165	0.9585
25.7913	33.3342	728.7359	59.6195	-241.9629	-46.4972	734.8417	16.9112	51.1737	7.342	20.3454	-15.1097	60.7361	-0.0592	0.0182	-0.0073	-0.0462	0.0165	0.9585
25.8041	34.6	719.1926	60.3699	-237.6387	-46.679	724.5025	18.5396	82.2078	9.1945	32.6541	-17.6301	97.2874	-0.0592	0.0182	-0.0073	-0.0462	0.0165	0.9585
25.8169	35.5637	705.9475	60.5524	-232.1096	-46.4496	710.6664	17.5085	119.7966	10.1665	47.53	-17.9979	141.5465	-0.0592	0.0182	-0.0073	-0.0462	0.0165	0.9585
25.8296	36.1291	687.8332	59.9936	-225.0117	-45.6713	692.1934	13.3176	161.2057	9.6721	63.839	-15.371	190.3681	-0.0592	0.0182	-0.0073	-0.0462	0.0165	0.9585
